<?xml version="1.0" encoding="utf-8"?>
<!-- Generator: Adobe Illustrator 24.3.0, SVG Export Plug-In . SVG Version: 6.00 Build 0)  -->
<svg version="1.1" id="Capa_1" xmlns="http://www.w3.org/2000/svg" xmlns:xlink="http://www.w3.org/1999/xlink" x="0px" y="0px"
	 viewBox="0 0 100 100" style="enable-background:new 0 0 100 100;" xml:space="preserve">
<g>
	<path d="M82.5,21.6c1.6-1.6,3.1-3,4.5-4.5c2.4-2.7,6.1-2.8,8.5,0.1c0.4,0.5,0.9,0.9,1.3,1.4c1.7,2,1.7,4.8-0.1,6.8
		c-0.2,0.2-0.5,0.5-0.7,0.7c-9.7,9.7-19.4,19.5-29.2,29.2c-0.6,0.6-1.4,1.1-2.2,1.4c-2.6,1-5.2,1.9-7.8,2.9
		c-1.1,0.4-2.1,0.4-2.9-0.4c-0.8-0.8-0.8-1.8-0.4-2.8c1-2.7,2-5.5,3-8.2c0.3-0.7,0.7-1.3,1.2-1.8c6.4-6.5,12.9-13,19.4-19.4
		c0.5-0.5,0.6-0.9,0.6-1.6c0-6.4,0-12.8,0-19.2c0-0.3,0-0.6,0-1c-19.2,0-38.2,0-57.4,0c0,0.3-0.1,0.6-0.1,0.9c0,23,0,45.9,0,68.9
		c0,4,2.2,6.3,4.7,7.1c4.8,1.6,9.3-1.7,9.4-6.9c0-1.5,0-3,0-4.6c0-1.6,0.9-2.5,2.5-2.6c1,0,2,0,3,0c12.2,0,24.3,0,36.5,0
		c0.4,0,0.8,0,1.3,0c0-0.4,0-0.8,0-1.1c0-6.4,0-12.7,0-19.1c0-0.8,0.2-1.4,0.8-1.9c1.3-1.2,2.5-2.4,3.8-3.8c0,8.8,0,17.3,0,26
		c0.4,0,0.8,0,1.1,0c2.4,0,4.8,0,7.3,0c1.7,0,2.6,0.9,2.6,2.6c-0.1,2.5,0.1,5.1-0.4,7.5c-1,5.1-5.7,8.9-10.9,9
		c-4.5,0.1-9.1,0-13.6,0c-13.7,0-27.4,0-41.1,0c-5.7,0-10.3-3.7-11.5-9.3c-0.2-1.1-0.2-2.2-0.2-3.3c0-18.7,0-37.5,0-56.2
		c0-0.4,0-0.8,0-1.3c-3,0-6,0-9,0c0,25.9,0,51.8,0,77.8c19.7,0,39.4,0,59.2,0c0-2,0-4,0-6c1.6,0,3.1,0,4.7,0c0,2.9,0,5.7,0,8.6
		c0,1.2-0.9,2-2.2,2.1c-0.3,0-0.5,0-0.8,0c-20.9,0-41.7,0-62.6,0c-0.4,0-0.7,0-1.1-0.1c-1-0.2-1.6-0.7-1.9-1.7C2,97.5,2,97,2,96.6
		c0-27.1,0-54.1,0-81.2c0-0.2,0-0.5,0-0.7c0.1-1.5,1-2.4,2.5-2.4c3.4,0,6.8,0,10.1,0c0.3,0,0.6,0,1.1,0c0-1.7,0-3.3,0-4.8
		c0-1.4,0-2.9,0-4.3c0-2,0.8-2.8,2.8-2.8c4.2,0,8.5,0,12.7,0c16,0,32.1,0,48.1,0c0.5,0,1.1,0,1.6,0.1c1,0.3,1.6,1.2,1.6,2.6
		c0,5.7,0,11.5,0,17.2C82.5,20.7,82.5,21,82.5,21.6z M36.7,82.4c0.3,0,0.5,0.1,0.6,0.1c14.8,0,29.6,0,44.4,0c1,0,2.2-0.3,3.1-0.7
		c3.5-1.7,4.4-4.9,3.8-9c-16.5,0-33,0-49.6,0C39.2,76.2,38.9,79.5,36.7,82.4z M59.5,53.5c2.1-0.7,4-1.4,5.5-3
		c7.1-7.3,14.3-14.4,21.4-21.5c0.2-0.2,0.4-0.5,0.6-0.6c-0.8-0.8-1.6-1.6-2.4-2.4c0,0-0.1,0.1-0.2,0.1C76.8,33.9,69,41.6,61.3,49.4
		c-0.2,0.2-0.4,0.4-0.5,0.6C60.4,51.1,60,52.3,59.5,53.5z M90.7,25c0.4-0.4,0.7-0.9,1.1-1.4c2.1-2.1,2.1-1.4-0.1-3.7
		c0,0-0.1-0.1-0.1-0.1c-0.3,0-0.6-0.1-0.8,0c-0.9,0.8-1.8,1.7-2.7,2.5C89,23.3,89.7,24.1,90.7,25z"/>
	<path d="M49,28.5c-6.3,0-12.6,0-18.9,0c-0.5,0-1,0-1.4-0.2c-0.4-0.3-0.9-0.9-0.9-1.4c0-0.5,0.5-1.1,0.9-1.5
		c0.3-0.2,0.8-0.2,1.3-0.2c12.7,0,25.3,0,38,0c0.5,0,1,0,1.4,0.3c0.4,0.3,0.8,0.9,0.8,1.4c0,0.5-0.5,1.1-0.9,1.4
		c-0.3,0.3-0.9,0.2-1.4,0.2C61.7,28.5,55.3,28.5,49,28.5z"/>
	<path d="M49,17.9c-6.4,0-12.7,0-19.1,0c-0.8,0-1.5-0.1-1.9-0.9c-0.5-1,0-2.1,1.1-2.4c0.4-0.1,0.8-0.1,1.2-0.1c12.5,0,25.1,0,37.6,0
		c0.3,0,0.7,0,1,0c0.9,0.1,1.5,0.8,1.5,1.6c0,0.8-0.6,1.5-1.5,1.6c-0.3,0-0.6,0-0.9,0C61.6,17.9,55.3,17.9,49,17.9z"/>
	<path d="M66.1,35.7c-1.2,1.2-2.2,2.2-3.2,3.2C62.7,39,62.4,39,62.1,39c-10.8,0-21.5,0-32.3,0c-0.7,0-1.5-0.1-1.8-0.9
		c-0.2-0.5-0.2-1.3,0.1-1.6c0.4-0.5,1.1-0.8,1.7-0.8c11.4,0,22.9,0,34.3,0C64.7,35.7,65.3,35.7,66.1,35.7z"/>
	<path d="M36.5,46.2c2.3,0,4.6,0,6.9,0c1.6,0,2.4,1.4,1.6,2.5c-0.3,0.4-1,0.8-1.6,0.8c-4.6,0.1-9.2,0.1-13.8,0
		c-1.1,0-1.9-0.7-1.9-1.7c0-1,0.8-1.7,1.9-1.7C32,46.2,34.2,46.2,36.5,46.2z"/>
</g>
</svg>
