<?xml version="1.0" encoding="utf-8"?>
<!-- Generator: Adobe Illustrator 24.3.0, SVG Export Plug-In . SVG Version: 6.00 Build 0)  -->
<svg version="1.1" id="Capa_1" xmlns="http://www.w3.org/2000/svg" xmlns:xlink="http://www.w3.org/1999/xlink" x="0px" y="0px"
	 viewBox="0 0 100 100" style="enable-background:new 0 0 100 100;" xml:space="preserve">
<style type="text/css">
	.st0{fill:#FFFFFF;}
</style>
<g>
	<path class="st0" d="M50.3,68.8c0.3,1.6,0.7,3.1,1,4.6c-0.2,0-0.5,0-0.7,0c-11.8,0-23.6,0-35.3,0c-3.2,0-5.7-1.3-7.1-4.2
		c-0.5-1.1-0.7-2.5-0.7-3.8c-0.1-8.5,0-17,0-25.6c0-0.5,0-0.8-0.7-1c-3.3-0.8-5.2-4.1-4.3-7.5c2.3-8.6,4.7-17.3,7.1-25.9
		c0.9-3.2,3-4.7,6.3-4.7c12.4,0,24.8,0,37.2,0c3.5,0,5.6,1.6,6.5,5c2.3,8.3,4.5,16.6,6.9,24.9c1.1,4-0.9,7.6-4.8,8.3
		c0,1.4,0,2.8,0,4c-1.7,0.6-3.2,1.1-4.7,1.7c0-1.8,0-3.7,0-5.6c-15,0-29.8,0-44.8,0c0,0.3,0,0.6,0,1c0,8.4,0,16.8,0,25.2
		c0,2.5,0.9,3.4,3.3,3.4c11.3,0,22.5,0,33.8,0C49.6,68.8,50,68.8,50.3,68.8z M34.5,34.5c8.6,0,17.2,0,25.8,0c1.5,0,2.1-0.7,1.7-2.2
		c-2.3-8.4-4.6-16.8-7-25.3c-0.3-1.3-0.7-1.5-2-1.5c-12.3,0-24.6,0-36.9,0c-1.4,0-1.7,0.3-2.1,1.6c-0.7,2.6-1.4,5.3-2.2,7.9
		C10.2,20.7,8.6,26.4,7,32.2c-0.4,1.6,0.1,2.3,1.8,2.3c0.2,0,0.4,0,0.6,0C17.8,34.5,26.1,34.5,34.5,34.5z"/>
	<path class="st0" d="M54.2,68.9c0.4-2.2,0.8-4.5,1.1-6.7c0.6-3.5,1.2-7,1.8-10.5c0.6-3.4,3.6-5.2,6.9-4.1
		c5.1,1.8,10.1,3.7,15.2,5.6c1.7,0.6,2.9,1.8,3.8,3.3C87.8,64.3,92.4,72.1,97,80c1.7,3,1,6.1-2,7.8C89,91.4,83,94.8,77,98.3
		c-2.9,1.7-6.1,0.9-7.8-2.1c-4.6-7.8-9.2-15.7-13.8-23.6C54.7,71.5,54.3,70.3,54.2,68.9z M59,69c0.2,0.4,0.3,1,0.6,1.5
		c4.5,7.7,9,15.4,13.5,23.1c0.6,1.1,0.8,1.1,1.9,0.5c5.7-3.4,11.5-6.7,17.2-10.1c1.1-0.6,1.1-0.8,0.5-1.9c-4.5-7.7-9-15.3-13.5-23
		c-0.5-0.8-1.1-1.4-2-1.7c-4.8-1.7-9.6-3.5-14.4-5.3c-0.8-0.3-1-0.1-1.1,0.6c-0.5,3.2-1.1,6.3-1.6,9.5C59.8,64.4,59.4,66.6,59,69z"
		/>
	<path class="st0" d="M56.3,30.6c-1.7,0-3.3,0-4.9,0c-0.8-2.7-1.7-5.3-2.5-8c-0.4-1.3,0.3-2.6,1.6-2.9c1.3-0.4,2.5,0.3,2.9,1.6
		C54.3,24.4,55.3,27.4,56.3,30.6z"/>
	<path class="st0" d="M17.4,30.6c-1.7,0-3.2,0-4.9,0c0.5-1.7,1.1-3.3,1.6-4.9c0.5-1.4,0.9-2.9,1.4-4.3c0.4-1.3,1.6-1.9,2.8-1.6
		c1.2,0.3,2,1.5,1.7,2.8C19.1,25.2,18.2,27.9,17.4,30.6z"/>
	<path class="st0" d="M26.6,30.6c-1.6,0-3.2,0-4.8,0c0.2-1.1,0.5-2.1,0.7-3.1c0.4-1.9,0.9-3.9,1.3-5.8c0.4-1.5,1.6-2.3,3-2
		c1.2,0.3,1.9,1.6,1.6,3C27.8,25.3,27.2,27.9,26.6,30.6z"/>
	<path class="st0" d="M46.9,30.6c-1.7,0-3.2,0-4.8,0c-0.5-2-0.9-4-1.4-6c-0.2-0.7-0.3-1.3-0.4-2c-0.3-1.3,0.4-2.6,1.6-2.9
		c1.3-0.3,2.6,0.4,2.9,1.8C45.6,24.4,46.2,27.5,46.9,30.6z"/>
	<path class="st0" d="M36.8,30.6c-1.6,0-3.1,0-4.6,0c0-0.2-0.1-0.4-0.1-0.6c0-2.6,0-5.3,0-7.9c0-1.5,1-2.5,2.4-2.5
		c1.4,0,2.3,1,2.4,2.5C36.8,24.9,36.8,27.7,36.8,30.6z"/>
	<path class="st0" d="M74.6,63.2c0,3.3-2.7,6.1-6.2,6.1c-3.3,0-6-2.8-6.1-6.2c-0.1-3.2,2.8-6.1,6.1-6.1
		C71.8,57.1,74.6,59.8,74.6,63.2z M66.8,63.2c0,0.9,0.7,1.7,1.6,1.8c0.9,0.1,1.8-0.8,1.8-1.7c0-1-0.8-1.7-1.8-1.7
		C67.6,61.5,66.9,62.3,66.8,63.2z"/>
</g>
</svg>
