<?xml version="1.0" encoding="utf-8"?>
<!-- Generator: Adobe Illustrator 24.3.0, SVG Export Plug-In . SVG Version: 6.00 Build 0)  -->
<svg version="1.1" id="Capa_1" xmlns="http://www.w3.org/2000/svg" xmlns:xlink="http://www.w3.org/1999/xlink" x="0px" y="0px"
	 viewBox="0 0 100 100" style="enable-background:new 0 0 100 100;" xml:space="preserve">
<g>
	<path d="M74.4,12.1c2.2,1.8,4.3,3.5,6.3,5.3c6.6,6.1,10.4,13.7,12.2,22.4c0.3,1.2,0.4,2.5,0.6,3.7c0.2,0.8,0.4,1.6,0.6,2.4
		c0.2,0.6,0.5,0.9,1.1,0.9c2.3,0.3,4,2.2,4.1,4.6c0,0.7,0,1.4,0,2.1c-32.7,0-65.4,0-98.1,0c-0.5-2.9,0.4-5.1,2.6-6.2
		c0.5-0.2,1-0.5,1.5-0.5c0.8,0,1.1-0.4,1.2-1.1c0.3-2,0.7-4,1-6C9,33.1,11.7,27,16,21.6c2.4-3,5.3-5.4,8.3-7.8c0.6-0.5,1.3-1,2-1.6
		c0.6,1.8,1.1,3.5,1.6,5.1c1.6,5.3,3.2,10.7,4.7,16c1.4,5,6,8.4,11.2,8.4c4.3,0,8.6,0,12.9,0c5.5,0,9.9-3.4,11.5-8.7
		c2-6.8,4-13.5,6-20.2C74.2,12.8,74.3,12.5,74.4,12.1z"/>
	<path d="M76.9,57c6.3,0,12.5,0,18.8,0c-0.2,2.3-1.7,3.9-4.2,4.8c-1.1,0.4-2.3,0.7-3.3,1.3C83.5,65.8,81,73,84,78.1
		c2.6,4.3,1,6.3-1.5,8.9c-1.5,1.6-3.2,2.6-5.5,2.1c-0.7-0.1-1.4-0.4-2-0.7c-4-2.4-8-1.7-11.8,0.3c-2.2,1.1-4,2.7-5,5
		c-0.4,0.8-0.6,1.7-0.9,2.5c-0.7,2.2-2.2,3.5-4.5,3.7c-1.1,0.1-2.2,0.2-3.3,0.2c-3.1,0-4.7-0.9-5.5-3.9c-0.8-3-2.7-4.9-5.1-6.4
		c-1.9-1.2-3.9-2.1-6.1-2.6c-2.3-0.5-4.4,0.1-6.3,1.5c-2.2,1.6-4,1.7-6.2,0.1c-0.8-0.6-1.6-1.3-2.4-2c-0.5-0.4-0.9-0.9-1.3-1.4
		c-1.4-1.9-1.3-3.9-0.2-5.8c2.8-4.6,1.7-8.9-0.9-13.1c-1.6-2.6-3.8-4.2-6.8-4.9c-2.6-0.6-3.9-2.3-3.8-4.7c6.3,0,12.6,0,18.9,0
		c0.9,7.7,4.3,14,10.4,18.7c4.8,3.7,10.2,5.5,16.3,5.5C62.1,81.3,75.4,72.6,76.9,57z"/>
	<path d="M50.3,30.5c-2.2,0-4.4,0-6.5,0c-2.6,0-4.7-1.8-5.4-4.2c-1.5-5.8-3-11.7-4.6-17.5c-0.2-0.6-0.1-0.9,0.4-1.1
		c1.2-0.4,2.4-0.9,3.7-1.3c0.5-0.2,1-0.2,1.5-0.4c1.8-0.6,2.8-1.8,2.9-3.7c0-0.7,0.3-1.2,0.9-1.5c0.7-0.3,1.4-0.7,2.1-0.7
		C48.4,0,51.6,0,54.7,0c0.6,0,1.3,0.3,1.9,0.6c0.7,0.3,1,0.8,1.1,1.6c0.1,1.9,1.4,3.2,3.5,3.8c1.8,0.5,3.5,1.1,5.2,1.7
		c0.5,0.2,0.7,0.4,0.5,1c-1.6,5.9-3.1,11.7-4.7,17.6c-0.6,2.4-2.7,4.1-5.2,4.1C54.8,30.5,52.5,30.5,50.3,30.5z"/>
</g>
</svg>
