<?xml version="1.0" encoding="utf-8"?>
<!-- Generator: Adobe Illustrator 24.3.0, SVG Export Plug-In . SVG Version: 6.00 Build 0)  -->
<svg version="1.1" id="Capa_1" xmlns="http://www.w3.org/2000/svg" xmlns:xlink="http://www.w3.org/1999/xlink" x="0px" y="0px"
	 viewBox="0 0 100 100" style="enable-background:new 0 0 100 100;" xml:space="preserve">
<style type="text/css">
	.st0{fill:#FFFFFF;}
</style>
<g>
	<path class="st0" d="M77.3,35.5c3.6,3.6,7.2,7.2,10.8,10.8c-0.3,0.3-0.4,0.5-0.6,0.7c-4.9,4.8-9.8,9.6-14.7,14.4
		c-0.3,0.3-0.8,0.6-1.3,0.6c-8.2,0.4-16.4,0.7-24.6,1c-0.4,0-0.7,0-1.1,0c0-0.9,0-1.8,0-2.7c0.3-7.7,0.6-15.3,1-23
		c0-0.4,0.2-0.9,0.4-1.2c5-5.2,10.1-10.3,15.1-15.5c3.6,3.6,7.2,7.2,10.9,10.9c0.6-0.6,1.2-1.1,1.7-1.7c0.1-0.2,0.1-0.6,0-0.8
		c-0.8-2.7-0.3-5.1,1.7-7.1c3.5-3.5,6.9-7.1,10.3-10.6c2.2-2.3,5-3.1,8-1.9c3,1.2,4.7,3.4,5,6.7c0.1,2.2-0.7,4-2.3,5.6
		c-3.8,3.7-7.5,7.3-11.3,11c-1.7,1.6-3.8,1.9-6,1.3c-1-0.3-1.6-0.1-2.2,0.6C77.8,35,77.5,35.2,77.3,35.5z M69.6,35.7
		c-2.5-2.5-4.9-4.9-7.3-7.3c-3.2,3.3-6.5,6.7-9.7,10c-0.3,0.3-0.4,0.8-0.4,1.3c-0.2,3.4-0.4,6.9-0.6,10.3c-0.1,2.5-0.3,5-0.4,7.6
		c0.4,0,0.7,0,1,0c5.8-0.3,11.6-0.7,17.3-1c0.4,0,0.8-0.3,1.1-0.6c2.4-2.3,4.8-4.6,7.2-6.9c0.9-0.9,1.7-1.8,2.4-2.5
		c-2.3-2.4-4.6-4.8-7-7.3c-1.9,1.9-3.8,3.8-5.4,5.5c-1.3-1.2-2.5-2.4-3.8-3.5C65.8,39.4,67.7,37.5,69.6,35.7z M82.4,28.9
		c0.2-0.1,0.7-0.3,1-0.6c3.6-3.7,7.1-7.3,10.7-11c0.5-0.5,0.5-1,0-1.5c-0.3-0.3-0.6-0.6-0.8-0.9c-0.6-0.7-1.2-0.7-1.9,0
		c-3.6,3.5-7.2,7-10.8,10.6c-0.4,0.4-0.6,1.2-0.6,1.8C80.1,28,81.5,28.9,82.4,28.9z"/>
	<path class="st0" d="M25.8,80.2c7.6,0,15.1,0,22.7,0c0,3.6,0,7.2,0,10.8c-7.5,0-15.1,0-22.7,0C25.8,87.5,25.8,83.9,25.8,80.2z"/>
	<path class="st0" d="M73.9,91c-7.6,0-15.2,0-22.7,0c0-3.6,0-7.1,0-10.8c7.6,0,15.1,0,22.7,0C73.9,83.8,73.9,87.4,73.9,91z"/>
	<path class="st0" d="M77.3,91c0-3.6,0-7.2,0-10.8c7.6,0,15.1,0,22.7,0c0,3.6,0,7.1,0,10.8C92.4,91,84.9,91,77.3,91z"/>
	<path class="st0" d="M0,91c0-3.6,0-7.1,0-10.7c7.5,0,14.9,0,22.4,0c0,3.6,0,7.1,0,10.7C14.9,91,7.5,91,0,91z"/>
	<path class="st0" d="M35.4,76.1c-7.6,0-15.1,0-22.7,0c0-3.5,0-6.9,0-10.4c7.6,0,15.1,0,22.7,0C35.4,69.2,35.4,72.6,35.4,76.1z"/>
	<path class="st0" d="M38.4,76.1c0-3.5,0-6.9,0-10.4c7.6,0,15.1,0,22.7,0c0,3.4,0,6.9,0,10.4C53.6,76.1,46.1,76.1,38.4,76.1z"/>
	<path class="st0" d="M87,65.7c0,3.5,0,6.9,0,10.4c-7.5,0-14.9,0-22.4,0c0-3.4,0-6.9,0-10.4C72,65.7,79.5,65.7,87,65.7z"/>
</g>
</svg>
