<?xml version="1.0" encoding="utf-8"?>
<!-- Generator: Adobe Illustrator 24.3.0, SVG Export Plug-In . SVG Version: 6.00 Build 0)  -->
<svg version="1.1" id="Capa_1" xmlns="http://www.w3.org/2000/svg" xmlns:xlink="http://www.w3.org/1999/xlink" x="0px" y="0px"
	 viewBox="0 0 100 100" style="enable-background:new 0 0 100 100;" xml:space="preserve">
<g>
	<path d="M53,69.8c0,1.9,0,3.7,0,5.6c0.3,0,0.6,0,0.9,0c3,0,6,0,9,0c5.6,0,9.9,3.6,10.7,9.1c0.8,5.4-1.1,9.9-6.1,12.3
		c-1.4,0.7-3.1,1-4.6,1c-17.3,0.1-34.7,0.1-52,0C4,97.7-0.9,91.9,0.1,84.9c0.8-5.8,5.1-9.6,11-9.6c2.6,0,5.2,0,7.9,0
		c0-1.8,0-3.6,0-5.6c-0.3,0-0.6,0-0.9,0c-2.5,0-4.9,0-7.4,0c-1.2,0-1.9-0.6-1.9-1.9c0-10.6,0-21.2,0-31.8c0-1.3,0.7-1.9,2-1.9
		c4.4,0,8.8,0,13.2,0c7.2,0,14.3,0,21.5,0c1.5,0,3,0.2,4.3,1.1c0.5,0.3,0.7,0,1-0.2c4.9-3.8,9.8-7.5,14.7-11.2
		c8.7-6.7,17.5-13.4,26.2-20.1c0.3-0.2,0.6-0.5,0.8-0.7c0.7-0.7,1.6-0.9,2.4-0.5c0.8,0.4,1,1.1,0.8,2.2c-0.1,0.4-0.1,0.8-0.1,1.2
		c0,6.2,0,12.3,0,18.5c0,0.6,0.1,0.9,0.7,1.2c2.4,1,3.9,3.6,3.7,6c-0.3,2.9-2.1,5-4.8,5.6c-2.5,0.6-5.1-0.5-6.5-2.7
		c-0.6-1-0.5-2,0.4-2.6c0.9-0.6,1.8-0.3,2.5,0.7c0.8,1.1,1.9,1.5,3.1,1.1c1.1-0.4,1.8-1.4,1.8-2.6c0-1.2-0.8-2.2-1.9-2.5
		c-0.2-0.1-0.3-0.1-0.5-0.1c-1.6-0.1-2-0.6-2-2.2c0-5.2,0-10.4,0-15.6c0-0.2,0-0.5,0-0.7c-0.1,0-0.1-0.1-0.2-0.1
		c-9.8,13.1-19.6,26.1-29.4,39.2c0.5,0.5,1,1,1.4,1.5c0.3,0.5,0.7,1.1,0.7,1.6c0,5,0,10,0,15.1c0,0.4,0,0.9-0.2,1.3
		c-0.3,0.8-0.9,1.2-1.8,1.2c-2.9,0-5.8,0-8.7,0C53.7,69.8,53.4,69.8,53,69.8z M61.1,53.7c-0.4,0-0.7,0-1.1,0c-7.6,0-15.2,0-22.7,0
		c-1.8,0-2.4-0.5-2.4-2.4c0-4.2,0-8.5,0-12.7c0-0.3,0-0.6-0.1-1c-7.6,0-15.1,0-22.6,0c0,7,0,14,0,21.1c0.4,0,0.7,0,1,0
		c6.2,0,12.5,0,18.7,0c0.3,0,0.5,0,0.8,0c1.1,0.1,1.7,0.9,1.6,1.9c-0.1,1-0.8,1.5-2,1.5c-6.4,0-12.7,0-19.1,0c-0.3,0-0.7,0-1,0
		c0,1.4,0,2.7,0,4.1c16.3,0,32.6,0,48.8,0C61.1,62.1,61.1,58,61.1,53.7z M36.9,78.8C36.9,78.8,36.9,78.8,36.9,78.8
		c-8.8,0.1-17.6,0.1-26.3,0.1c-2,0-3.7,0.8-5,2.2c-1.8,1.8-2.2,4.1-2,6.6c0.3,3.8,3.3,6.7,7.1,6.7c17.5,0,35.1,0,52.6,0
		c0.5,0,1.1,0,1.6-0.2c5-1.3,6.6-6.4,5-10.7c-1.1-3-3.7-4.5-7.2-4.5C54.1,78.7,45.5,78.8,36.9,78.8z M58.8,50.2
		c-0.1-0.2-0.1-0.3-0.2-0.3c-3.1-3.4-6.2-6.9-9.3-10.3c-1.1-1.2-2.3-2.1-4.1-2c-1.8,0.1-3.6,0-5.4,0c-0.5,0-1,0-1.5,0
		c0,4.3,0,8.4,0,12.6C45.2,50.2,52,50.2,58.8,50.2z M22.6,75c9,0,17.9,0,26.8,0c0-1.5,0-2.9,0-4.3c-9,0-17.9,0-26.8,0
		C22.6,72.1,22.6,73.5,22.6,75z M61.9,44.2c2.4-3.1,4.6-6.1,6.8-9.1c-2.7,0-5.2,0-7.8,0C61.3,38.1,61.6,41,61.9,44.2z M58.3,44.3
		c0.1,0,0.1,0,0.2,0c-0.3-3.3-0.7-6.6-1-10c-1.7,1.3-3.3,2.5-4.8,3.7C54.6,40.1,56.4,42.2,58.3,44.3z M61,31.5c2.6,0,4.9,0,7.2,0
		c0.3-2,0.6-4,0.9-6.2C66.3,27.5,63.8,29.4,61,31.5z M84.9,13.5c0,0-0.1-0.1-0.1-0.1c-3.3,2.5-6.6,5-9.9,7.6c1.4,0.2,2.7,0.2,4,0.1
		c0.2,0,0.4-0.2,0.5-0.3C81.3,18.4,83.1,15.9,84.9,13.5z M71.8,30.6c0.1,0,0.1,0,0.2,0.1c1.5-2,3-3.9,4.5-6c-1.4,0-2.6,0-3.9,0
		C72.4,26.6,72.1,28.6,71.8,30.6z"/>
	<path d="M18.4,86.5c0,2.4-1.9,4.3-4.3,4.3c-2.4,0-4.3-1.9-4.3-4.3c0-2.4,1.9-4.4,4.3-4.4C16.5,82.2,18.4,84.1,18.4,86.5z"/>
	<path d="M24.8,86.5c0-2.4,2-4.3,4.4-4.3c2.4,0,4.3,2,4.3,4.4c0,2.4-1.9,4.2-4.3,4.2C26.7,90.8,24.8,88.9,24.8,86.5z"/>
	<path d="M48.4,86.5c0,2.4-1.9,4.3-4.4,4.3c-2.4,0-4.3-2-4.3-4.4c0-2.4,2-4.3,4.3-4.3C46.5,82.2,48.4,84.1,48.4,86.5z"/>
	<path d="M59.1,90.8c-2.4,0-4.3-1.9-4.3-4.3c0-2.4,2-4.3,4.4-4.3c2.4,0,4.3,1.9,4.3,4.3C63.4,88.9,61.5,90.8,59.1,90.8z"/>
</g>
</svg>
