<?xml version="1.0" encoding="utf-8"?>
<!-- Generator: Adobe Illustrator 24.3.0, SVG Export Plug-In . SVG Version: 6.00 Build 0)  -->
<svg version="1.1" id="Capa_1" xmlns="http://www.w3.org/2000/svg" xmlns:xlink="http://www.w3.org/1999/xlink" x="0px" y="0px"
	 viewBox="0 0 100 100" style="enable-background:new 0 0 100 100;" xml:space="preserve">
<g>
	<path d="M37.5,79.9c0-3.4,0-6.6,0-9.7c0-0.3-0.2-0.6-0.3-0.9c-0.6-1-1.3-1.9-2-2.9c3.4,0,6.6,0,10.1,0c-0.6,1-1.1,1.9-1.7,2.8
		c-0.2,0.3-0.4,0.7-0.4,1.1c0,3,0,6,0,9c0,0.1,0.1,0.2,0.1,0.5c0.3-0.4,0.5-0.6,0.7-0.9c4.3-6.2,8.7-12.3,13-18.5
		c0.4-0.5,0.7-0.7,1.3-0.6c9.2,1.6,15.6,6.8,19.2,15.4c0.9,2.1,1.4,4.4,1.6,6.7c0.3,2.9,0.3,5.8,0,8.7c-0.5,4.6-4.9,8.4-9.6,8.7
		c-0.5,0-1,0.1-1.5,0.1c-18.5,0-36.9,0-55.4,0c-3.4,0-6.2-0.9-8.6-3.4c-1.5-1.5-2.7-3.4-2.8-5.5c-0.4-4.8-0.5-9.6,1.2-14.2
		C4.9,69,9.8,64,16.8,61.2c1.7-0.7,3.5-0.9,5.3-1.5c0.8-0.2,1.2,0.1,1.6,0.7c4.4,6.2,8.7,12.4,13.1,18.5
		C37,79.2,37.2,79.4,37.5,79.9z"/>
	<path d="M19.9,33.9c-2.4,0-4.6,0-6.9,0c-0.5-2,0.4-3.3,3-4c0.2-7.5,2.7-14.1,8.7-18.9c4.7-3.8,10.1-5.3,16-5.2
		c12.6,0.2,23.5,9.5,23.7,24c2.7,1,3.3,1.7,3,4c-2.3,0-4.5,0-6.9,0c0,0.5,0,0.9,0,1.3c0,3,0,6-0.1,9c-0.3,6.7-3.5,11.7-9.5,14.5
		c-7.7,3.8-15.5,3.6-23-0.8c-5.2-3-7.8-7.8-8.1-13.8c-0.1-3,0-6-0.1-9C19.9,34.8,19.9,34.4,19.9,33.9z M24.5,34c0,3.3-0.1,6.6,0,9.8
		c0.1,4,1.8,7.4,5.1,9.6c6.3,4.3,13,4.5,19.7,1.1c3.8-1.9,6.2-5.2,6.6-9.4c0.3-3.6,0.1-7.3,0.1-10.9c0,0-0.1-0.1-0.1-0.2
		C45.5,34,35.1,34,24.5,34z M40.3,13.6c-3.2,0-5.6,2.4-5.6,5.6c0,3.1,2.5,5.6,5.6,5.6c3.1,0,5.6-2.5,5.6-5.6
		C45.9,16,43.4,13.6,40.3,13.6z"/>
	<path d="M98.5,56.8c-4.1,0.9-8.1,1.8-12.2,2.8c-0.4-1.6-0.8-3.2-1.1-4.8c-1.4-6.1-2.8-12.2-4.2-18.3c-0.2-1-0.1-1.9,0.4-2.7
		c0.7-1.3,0.7-2.6,0.3-4c-1-3.5-1.9-7.1-2.8-10.7c-0.1-0.3-0.2-0.6-0.3-0.9c-2.2-0.1-2.6-0.3-3.3-2.3c-1.1,1.3-2.1,2.5-3.1,3.7
		c-0.3,0.4-0.9,0.7-1.4,0.8c-1.6,0.4-3.1,0.6-4.8,0.9c-1.2-4.8-2.4-9.6-3.5-14.4c1.8-0.5,3.5-0.9,5.2-1.3c0.3-0.1,0.7,0,1,0.2
		c1.6,0.7,3.2,1.4,5,2.2C73.4,7,73.1,6.4,73,5.7c-0.2-0.7-0.1-1.1,0.8-1.3c4.7-1.1,9.4-2.2,14.2-3.3c2.6-0.6,5-0.3,7.3,1.1
		c1.3,0.8,2.6,1.5,3.8,2.5c-0.5-0.1-1-0.1-1.4-0.2C94.8,4,92.5,5,90.3,6.7C88,8.5,88,8.6,88.8,11.4c0.2,0.7,0.4,1.4,0.6,2.1
		c0.3,1.3-0.1,1.9-1.4,2.2c-0.4,0.1-0.8,0.2-1.4,0.3c0.4,1.7,0.8,3.3,1.3,5c0.7,2.6,1.4,5.2,2,7.8c0.2,1,0.8,1.6,1.5,2.1
		c1.2,1,1.8,2.3,2.1,3.8c1.6,7.2,3.3,14.4,5,21.6C98.5,56.4,98.5,56.5,98.5,56.8z M92.6,52.9c-1.4-5.8-2.8-11.5-4.2-17.2
		c-0.9,0.2-1.6,0.5-2.5,0.7c1.4,5.7,2.8,11.4,4.2,17.2C91,53.3,91.8,53.1,92.6,52.9z"/>
	<path d="M34.6,43.7c-2.2,0-4.3,0-6.5,0c0-2.2,0-4.3,0-6.5c2.1,0,4.3,0,6.5,0C34.6,39.3,34.6,41.5,34.6,43.7z"/>
	<path d="M45.6,37.1c2.2,0,4.3,0,6.5,0c0,2.2,0,4.3,0,6.6c-2.1,0-4.3,0-6.5,0C45.6,41.5,45.6,39.4,45.6,37.1z"/>
</g>
</svg>
