<?xml version="1.0" encoding="utf-8"?>
<!-- Generator: Adobe Illustrator 24.3.0, SVG Export Plug-In . SVG Version: 6.00 Build 0)  -->
<svg version="1.1" id="Capa_1" xmlns="http://www.w3.org/2000/svg" xmlns:xlink="http://www.w3.org/1999/xlink" x="0px" y="0px"
	 viewBox="0 0 100 100" style="enable-background:new 0 0 100 100;" xml:space="preserve">
<style type="text/css">
	.st0{fill:#FFFFFF;}
</style>
<g>
	<path class="st0" d="M86.9,22.9c1.7,0.4,2.2,1,2.2,2.6c0,8.5,0,17,0,25.5c0,0.4,0,0.7,0,1.1c0.1-0.1,0.1-0.1,0.2-0.2
		c0.7,0.5,1.5,0.9,2.1,1.5c1.4,1.3,2.7,2.6,4,4c1.2,1.2,1.2,2.1,0,3.2c-1.1,1.1-2.1,2.2-3.3,3.3c-0.6,0.5-0.7,1-0.4,1.7
		c0.3,0.8,0.9,0.7,1.5,0.7c1.6,0,3.1,0,4.7,0c1.5,0,2.1,0.7,2.1,2.2c0,2.1,0,4.1,0,6.2c0,1.5-0.6,2.1-2.1,2.2c-1.7,0-3.4,0-5.2,0
		c-0.7,0-0.9,0.3-1.1,0.8c-0.2,0.5-0.2,0.9,0.2,1.4c1.2,1.1,2.4,2.3,3.5,3.5c1.1,1.1,1.1,2,0,3.2c-1.4,1.5-2.9,2.9-4.4,4.4
		c-1.1,1.1-1.9,1.1-3,0c-1.2-1.2-2.4-2.4-3.5-3.6c-0.6-0.7-1.1-0.2-1.7-0.1C82,86.5,82,86.9,82,87.4c0,1.7,0,3.4,0,5.1
		c0,1.4-0.6,2.1-2,2.1c-2.2,0-4.3,0-6.5,0c-1.3,0-2-0.7-2-2c0-1.8-0.1-3.5,0-5.3c0-0.8-0.5-0.9-1-1.1c-0.5-0.3-0.8-0.2-1.2,0.2
		c-1.2,1.2-2.4,2.4-3.6,3.6c-1.1,1.1-2,1.1-3.1,0c-1.6-1.5-3.1-3.1-4.6-4.7c-0.8-0.9-0.8-1.7,0.1-2.6c1.1-1.1,2.2-2.2,3.2-3.3
		c0.4-0.4,0.6-0.9,0.9-1.4c-0.5-0.1-1-0.2-1.5-0.2c-16.4,0-32.8,0-49.2,0c-5.9,0-10.3-3.6-11.4-9.4C0,67.2,0,65.8,0,64.5
		C0,56.8,0,49,0,41.2c0-6,0-12.1,0.1-18.1c0-4.7,2.5-8.1,6.8-9.2c1-0.3,2-0.3,3-0.3c4,0,8,0,12,0c1.9,0,2.5,0.6,2.5,2.5
		c0,2,0,3.9,0,5.9c0,0.3,0,0.7,0,1.1c0.4,0,0.8,0,1.1,0c15.3,0,30.5,0,45.8,0c0.7,0,1.1-0.2,1.6-0.7c5.3-5.3,10.6-10.6,15.9-15.9
		c1.4-1.4,2.1-1.4,3.5,0c1.3,1.3,2.6,2.6,3.9,3.8c1.4,1.4,1.4,2.1,0,3.5c-2.8,2.8-5.6,5.6-8.4,8.3C87.6,22.4,87.4,22.5,86.9,22.9z
		 M24.4,26.5c0,0.4,0,0.7,0,1c0,12.8,0,25.7,0,38.5c0,0.4,0,0.8-0.2,1.2c-0.3,0.8-0.9,1.1-1.7,1.1c-0.8,0-1.3-0.5-1.5-1.2
		c-0.1-0.4-0.1-0.8-0.2-1.2c-0.2-2.8-1.6-4.7-3.9-6.1c-2-1.2-4.1-1.1-6.3-0.9c-4.4,0.3-7.5,4-7.1,8.5c0.4,4.2,3.6,7,7.9,7
		c13.9,0,27.8,0,41.7,0c0.2,0,0.4-0.1,0.6-0.1c0-2,0-4,0-6c0-1.5,0.6-2.1,2.1-2.1c1.7,0,3.4,0,5.1,0c0.6,0,0.9-0.1,1.1-0.7
		c0.2-0.6,0.5-1.1-0.1-1.6c-1.2-1.1-2.4-2.3-3.5-3.5c-1.1-1.2-1.2-2,0-3.2c1.4-1.4,2.8-2.8,4.2-4.2c1.2-1.2,2.1-1.2,3.2,0
		c1.2,1.2,2.4,2.3,3.5,3.5c0.4,0.5,0.8,0.5,1.4,0.2c0.5-0.2,0.8-0.5,0.8-1.1c0-1.7,0-3.4,0-5.2c0-1.4,0.7-2,2-2c2.2,0,4.4,0,6.6,0
		c1.3,0,1.9,0.6,1.9,1.9c0,1.8,0,3.5,0,5.3c0,0.7,1.2,1.5,1.8,1.3c0.5-0.2,1.7-1.8,1.7-2.4c0-9,0-18.1,0-27.1c0-0.3,0-0.6-0.1-0.8
		c-1.4-0.3-2.4,0-3.3,1.1c-1.1,1.3-2.4,2.5-3.7,3.8c-0.3,0.3-0.7,0.5-1.1,0.7c-2.2,0.8-4.4,1.5-6.5,2.2c-0.9,0.3-1.7,0.4-2.4-0.3
		c-0.7-0.7-0.5-1.5-0.2-2.3c0.6-1.7,1.1-3.4,1.7-5.2C54.8,26.5,39.7,26.5,24.4,26.5z M20.9,58.2c0-0.1,0-0.1,0-0.2
		c0-13.4,0-26.9,0-40.3c0-0.6-0.3-0.8-0.8-0.8c-3.6,0-7.1,0-10.7,0C8.1,17,7,17.3,6,18c-1.9,1.3-2.5,3.1-2.5,5.3
		c0,5.7,0,11.4,0,17.2c0,5.6,0,11.1,0,16.7c0,0.3,0,0.7,0,1C9.4,54.2,15.1,54.3,20.9,58.2z M91.9,84c-0.2-0.2-0.4-0.5-0.6-0.7
		c-1-1-2.1-2.1-3.1-3.1c-0.9-0.9-0.9-1.4-0.4-2.5c0.4-0.8,0.7-1.6,1-2.4c0.7-1.9,0.8-2,2.8-2c0.8,0,1.6,0,2.4,0c0.9,0,1.7,0,2.6,0
		c0-1.3,0-2.4,0-3.7c-1.9,0-3.8,0-5.7,0c-1,0-1.6-0.4-1.9-1.3c-0.4-1.1-0.8-2.1-1.3-3.1c-0.4-0.8-0.3-1.5,0.4-2.2
		c1.1-1,2.1-2.1,3.1-3.1c0.3-0.3,0.6-0.6,0.7-0.8c-0.9-0.9-1.7-1.8-2.5-2.6c-0.6,0.6-1.2,1.2-1.9,1.9c-0.6,0.6-1.3,1.2-1.9,1.9
		C84.8,61,84,61.1,83,60.7c-1-0.5-2.1-0.9-3.1-1.3c-0.9-0.3-1.3-0.9-1.2-1.8c0-1,0-2,0-3c0-2.7,0-2.6-2.6-2.6c-0.7,0-1,0.2-0.9,1
		c0,1.5,0,3,0,4.4c0,1.5-0.3,1.8-1.7,2.3c-0.8,0.3-1.5,0.6-2.3,1c-1.5,0.7-1.9,0.7-3.1-0.5c-1.2-1.2-2.4-2.5-3.5-3.6
		c-1,1-1.8,1.8-2.7,2.6c0.2,0.2,0.3,0.4,0.5,0.6c1,1,2.1,2.1,3.1,3.1c1.1,1.1,1.1,1.5,0.4,2.9c-0.4,0.7-0.7,1.5-1,2.3
		c-0.5,1.6-0.8,1.9-2.5,1.9c-1.7,0-3.4,0-5.2,0c0,1,0,1.9,0,2.9c0,0.6,0.2,0.9,0.9,0.8c1.6,0,3.2,0,4.8,0c1.2,0,1.6,0.3,2,1.4
		c0.4,1,0.8,1.9,1.2,2.9c0.5,1.1,0.5,1.5-0.4,2.4c-1.1,1.1-2.2,2.3-3.4,3.4c-0.4,0.4-0.4,0.7,0,1.1c0.5,0.5,1,1,1.5,1.5
		c0.4,0.5,0.7,0.5,1.1,0c1.1-1.2,2.2-2.3,3.3-3.5c0.7-0.7,1.5-0.8,2.4-0.4c1,0.5,2,0.9,3,1.2c0.8,0.3,1.3,0.7,1.3,1.6
		c0,1.1,0.1,2.2,0.1,3.3c0,2.7,0,2.7,2.7,2.7c0.6,0,0.9-0.2,0.9-0.8c0-1.5,0-3,0-4.5c0-1.4,0.3-1.8,1.6-2.3c1-0.4,1.9-0.8,2.9-1.2
		c0.9-0.4,1.6-0.3,2.3,0.4c0.3,0.3,0.6,0.6,0.8,0.8c1,1,2.1,2.1,3.1,3.1C90.2,85.7,91,84.9,91.9,84z M87,13.5c-4,4-8.1,8-12.1,11.9
		c0.8,0.8,1.6,1.6,2.3,2.3c4-4,8-7.9,12.1-11.9C88.4,14.9,87.6,14.1,87,13.5z M89.4,10.7c0.8,0.8,1.7,1.6,2.5,2.4
		c0.3-0.3,0.7-0.6,1.1-1c-0.8-0.8-1.6-1.7-2.5-2.5C90.1,10,89.8,10.4,89.4,10.7z M73,28.6c-0.2,0.6-0.3,1-0.5,1.5
		c0.6-0.2,1-0.3,1.4-0.5C73.6,29.3,73.4,29,73,28.6z"/>
	<path class="st0" d="M46.6,43.9c-5.8,0-11.5,0-17.3,0c-1.3,0-2.2-0.9-2-2c0.1-0.8,0.6-1.3,1.4-1.4c0.3,0,0.6,0,0.9,0
		c11.2,0,22.5,0,33.7,0c0.2,0,0.5,0,0.7,0c0.9,0.1,1.6,0.8,1.6,1.7c0,0.9-0.7,1.6-1.7,1.7c-1.1,0-2.2,0-3.2,0
		C56,43.9,51.3,43.9,46.6,43.9z"/>
	<path class="st0" d="M43,35.2c-4.5,0-9,0-13.5,0c-0.5,0-1.2-0.1-1.5-0.5c-0.4-0.4-0.6-1.1-0.5-1.6c0.1-0.5,0.7-0.9,1.2-1.3
		c0.2-0.2,0.6-0.1,0.9-0.1c9,0,18,0,27,0c1.3,0,2,0.5,2.1,1.4c0.2,1.2-0.6,2-1.9,2c-4.2,0-8.5,0-12.7,0C43.6,35.2,43.3,35.2,43,35.2
		z"/>
	<path class="st0" d="M37.8,52.6c-2.9,0-5.8,0-8.7,0c-0.9,0-1.5-0.4-1.7-1.3c-0.2-0.8,0.1-1.4,0.8-1.8c0.3-0.2,0.7-0.3,1-0.3
		c5.7,0,11.5,0,17.2,0c1.1,0,1.9,0.8,1.9,1.7c0,1-0.7,1.7-1.8,1.7C43.6,52.6,40.7,52.6,37.8,52.6z"/>
	<path class="st0" d="M37.7,70.1c-0.9,0-1.7-0.8-1.7-1.7c0-0.9,0.8-1.7,1.7-1.7c0.9,0,1.7,0.7,1.7,1.7
		C39.4,69.3,38.6,70.1,37.7,70.1z"/>
	<path class="st0" d="M42.8,66.7c0.9,0,1.7,0.8,1.6,1.7c0,0.9-0.8,1.7-1.7,1.6c-0.9,0-1.7-0.8-1.6-1.8
		C41.1,67.4,41.9,66.7,42.8,66.7z"/>
	<path class="st0" d="M49.6,68.4c0,0.9-0.8,1.7-1.7,1.7c-0.9,0-1.7-0.8-1.7-1.7c0-0.9,0.7-1.7,1.7-1.7
		C48.9,66.7,49.6,67.5,49.6,68.4z"/>
	<path class="st0" d="M34.2,68.4c0,0.9-0.9,1.7-1.8,1.6c-0.9,0-1.7-0.9-1.6-1.8c0-0.9,0.8-1.7,1.8-1.6
		C33.5,66.7,34.3,67.5,34.2,68.4z"/>
	<path class="st0" d="M68.1,71.5c0-4.7,4-8.7,8.7-8.7c4.7,0,8.7,4,8.7,8.7c0,4.7-4,8.8-8.6,8.8C72.1,80.2,68.1,76.3,68.1,71.5z
		 M76.9,76.8c2.9,0,5.3-2.4,5.2-5.3c0-2.9-2.4-5.2-5.2-5.2c-2.9,0-5.3,2.4-5.3,5.3C71.6,74.4,74,76.8,76.9,76.8z"/>
</g>
</svg>
