<?xml version="1.0" encoding="utf-8"?>
<!-- Generator: Adobe Illustrator 24.3.0, SVG Export Plug-In . SVG Version: 6.00 Build 0)  -->
<svg version="1.1" id="Capa_1" xmlns="http://www.w3.org/2000/svg" xmlns:xlink="http://www.w3.org/1999/xlink" x="0px" y="0px"
	 viewBox="0 0 100 100" style="enable-background:new 0 0 100 100;" xml:space="preserve">
<style type="text/css">
	.st0{fill:#FFFFFF;}
</style>
<g>
	<path class="st0" d="M27,63.8c-1.9,0-3.6,0-5.4,0c-1.2,0-2-0.7-2.2-1.7c-0.1-1.2,0.7-2.2,2.1-2.2c1.9,0,3.9-0.1,5.8,0
		c0.8,0,1.1-0.2,1.4-1c3.9-11.1,7.8-22.1,11.8-33.2c0.3-0.7,0.2-1.2-0.2-1.8c-4.2-6.6-0.7-15.4,6.9-17.3c0.7-0.2,0.8-0.4,0.8-1.1
		c0-1.3,0-2.6,0-3.9c0-0.9,0.7-1.5,1.5-1.6c0.9-0.2,1.8,0.2,2.1,1c0.2,0.4,0.2,0.8,0.2,1.2c0,1.1,0,2.2,0,3.3c0,0.6,0.1,0.9,0.8,1
		c5.4,1.3,9,6.2,8.7,11.8c-0.1,2.1-0.8,4.1-2,5.8c-0.2,0.3-0.3,0.7-0.2,1c4,11.3,8,22.7,12.1,34c0.2,0.5,0.5,0.7,1,0.7
		c2,0,3.9,0,5.9,0c0.5,0,1.1,0.2,1.6,0.5c0.7,0.5,0.9,1.3,0.7,2.1c-0.2,0.8-1,1.3-1.9,1.4c-1.5,0-3,0-4.5,0c-0.3,0-0.6,0-1,0
		c0.1,0.4,0.2,0.7,0.3,1c2.6,7.2,5.1,14.4,7.7,21.6c0.8,2.3,0.6,4.3-1.1,6.2c-0.2,0.2-0.2,0.6-0.2,0.8c0,1.4,0.1,2.8,0.2,4.2
		c0,1.2-0.4,1.9-1.3,2.2c-0.9,0.3-1.7,0-2.5-1c-0.8-1.1-1.6-2.2-2.5-3.3c-0.2-0.2-0.5-0.5-0.8-0.5c-2.3-0.4-3.8-1.6-4.5-3.8
		c-1.3-3.6-2.6-7.2-3.8-10.8c-1.9-5.3-3.8-10.7-5.7-16c-0.2-0.5-0.4-0.7-1-0.7c-1.7,0-3.5,0-5.3,0c0,1.7,0,3.4,0,5
		c0,1.7-0.8,2.4-2.6,2.4c-1.7,0-2.5-0.7-2.5-2.4c0-1.6,0-3.3,0-5c-1.4,0-2.8,0-4.1,0c-1.9,0-1.9,0-2.5,1.8c-3,8.4-6,16.8-9,25.2
		c-0.8,2.4-2.2,4-4.9,4.3c-0.3,0-0.5,0.3-0.7,0.5c-0.9,1.1-1.7,2.3-2.5,3.4c-0.7,0.9-1.6,1.2-2.4,0.9c-0.8-0.3-1.3-1-1.2-2.2
		c0-1.4,0.1-2.9,0.2-4.3c0-0.3-0.1-0.7-0.3-0.9c-1.5-1.7-1.9-3.6-1.1-5.8c2.6-7.3,5.2-14.6,7.7-21.8C26.7,64.6,26.8,64.3,27,63.8z
		 M32.6,59.8c1.8,0,3.6,0,5.3,0c0.6,0,0.9-0.2,1.1-0.8c3.4-9.7,6.9-19.4,10.3-29.2c0.1-0.2,0.1-0.5,0.2-0.5
		c-1.9-0.6-3.6-1.1-5.5-1.7C40.3,38.3,36.5,49,32.6,59.8z M55.9,27.5c-0.3,0.2-0.5,0.3-0.8,0.4c-1,0.2-1.3,1-1.6,1.8
		c-0.3,1-0.6,1.9-1,2.9c-0.4,0.9-0.3,1.7,0,2.6C55.4,43.1,58.2,51,61,59c0.2,0.7,0.5,0.9,1.3,0.9c1.4-0.1,2.9,0,4.3,0
		c0.3,0,0.5,0,0.9-0.1C63.6,49,59.7,38.3,55.9,27.5z M37.3,63.8c-1.9,0-3.6,0-5.4,0c-0.6,0-0.8,0.2-1,0.7c-1.7,4.9-3.5,9.8-5.2,14.7
		c-1,2.9-2.1,5.8-3.1,8.7c-0.5,1.3-0.2,2,1.1,2.4c0.6,0.2,1.1,0.4,1.7,0.6c1.6,0.6,2.2,0.3,2.7-1.3c2.4-6.8,4.9-13.7,7.3-20.5
		C36,67.4,36.6,65.7,37.3,63.8z M62.7,63.8c0.1,0.4,0.2,0.7,0.3,1c2,5.6,4,11.1,5.9,16.7c1,2.8,2,5.5,2.9,8.3
		c0.5,1.5,1.1,1.8,2.6,1.2c0.6-0.2,1.1-0.4,1.7-0.6c1.3-0.5,1.6-1.1,1.2-2.5c-0.9-2.4-1.7-4.9-2.6-7.3c-1.9-5.4-3.8-10.7-5.7-16.1
		c-0.1-0.3-0.4-0.7-0.6-0.7C66.6,63.8,64.7,63.8,62.7,63.8z M50.1,40c-0.1,0-0.1,0-0.2,0c-2.3,6.6-4.7,13.2-7,19.8
		c1.6,0,3.1,0,4.6,0c0-0.3,0-0.6,0-0.9c0-1.5,0-2.9,0-4.4c0-1.3,0.7-2,2-2.1c0.3,0,0.7,0,1,0c1.3,0.1,2,0.8,2,2.1c0,1.3,0,2.5,0,3.8
		c0,0.5,0,1,0,1.5c1.6,0,3,0,4.6,0C54.8,53.1,52.4,46.6,50.1,40z M43.6,21.5c2.1,3.5,6.2,4.6,9.8,2.9c3.3-1.6,5.1-5.8,3.8-8.8
		C52.6,17.6,48.1,19.5,43.6,21.5z M42.8,19.7c4.6-1.9,9.1-3.9,13.6-5.8c-1.7-3.2-6-4.6-9.4-3.1C43.6,12.3,41.7,16.3,42.8,19.7z"/>
</g>
</svg>
