<?xml version="1.0" encoding="utf-8"?>
<!-- Generator: Adobe Illustrator 24.3.0, SVG Export Plug-In . SVG Version: 6.00 Build 0)  -->
<svg version="1.1" id="Capa_1" xmlns="http://www.w3.org/2000/svg" xmlns:xlink="http://www.w3.org/1999/xlink" x="0px" y="0px"
	 viewBox="0 0 100 100" style="enable-background:new 0 0 100 100;" xml:space="preserve">
<g>
	<path d="M0,75.8C0,68.4,0,61,0,53.5c4,0,7.9,0,12,0c0-2.3,0-4.5,0-6.9c-4,0-7.9,0-12,0c0-7.5,0-14.9,0-22.4c33.3,0,66.6,0,100,0
		c0,7.4,0,14.9,0,22.4c-4,0-8,0-12,0c0,2.3,0,4.5,0,6.8c4,0,7.9,0,12,0c0,7.5,0,14.9,0,22.4C66.7,75.8,33.4,75.8,0,75.8z M57.7,46.6
		c0,2.2,0,4.5,0,6.7c5,0,10,0,15,0c0-2.3,0-4.5,0-6.7C67.7,46.6,62.7,46.6,57.7,46.6z M27.3,46.6c0,2.3,0,4.6,0,6.8c5.1,0,10,0,15,0
		c0-2.3,0-4.5,0-6.8C37.3,46.6,32.4,46.6,27.3,46.6z"/>
</g>
</svg>
