<?xml version="1.0" encoding="utf-8"?>
<!-- Generator: Adobe Illustrator 24.3.0, SVG Export Plug-In . SVG Version: 6.00 Build 0)  -->
<svg version="1.1" id="Capa_1" xmlns="http://www.w3.org/2000/svg" xmlns:xlink="http://www.w3.org/1999/xlink" x="0px" y="0px"
	 viewBox="0 0 100 100" style="enable-background:new 0 0 100 100;" xml:space="preserve">
<style type="text/css">
	.st0{fill:#FFFFFF;}
</style>
<g>
	<path class="st0" d="M78.6,84.1c0,0.5,0,0.8,0,1.2c0,4,0,7.9-0.1,11.9c0,1.8-0.9,2.3-2.5,1.5c-2.3-1.1-4.6-2.2-7-3.4
		c-0.5-0.3-0.9-0.2-1.5,0c-2.2,1.2-4.3,2.3-6.5,3.4c-1.6,0.8-2.6,0.2-2.6-1.5c0-4,0-8,0.1-12.1c0-0.3,0-0.7,0-1.1
		c-0.5,0-0.8,0-1.2,0c-12.8,0-25.7,0-38.5,0c-1.8,0-2.2-0.4-2.2-2.2c0-26.3,0-52.6,0-78.9c0-1.8,0.4-2.2,2.2-2.2
		c20.7,0,41.4,0,62.2,0c1.8,0,2.2,0.4,2.2,2.2c0,26.3,0,52.7,0,79c0,1.8-0.4,2.2-2.2,2.2C80.3,84.1,79.6,84.1,78.6,84.1z M80.3,81.2
		c0-25.9,0-51.7,0-77.6c-20.2,0-40.4,0-60.6,0c0,25.9,0,51.7,0,77.5c13,0,26,0,39,0c0-2.5,0-4.9,0-7.3c0-1,0.1-2,0.3-2.9
		c1-4.7,5.4-8,10.4-7.7c4.7,0.3,8.8,4.1,9.1,8.7c0.2,2.7,0.1,5.4,0.1,8.1c0,0.4,0,0.7,0,1.1C79.2,81.2,79.7,81.2,80.3,81.2z
		 M75.7,95.4c0-0.4,0-0.5,0-0.7c0-7.1,0-14.1,0-21.2c0-0.5,0-1-0.1-1.6c-0.5-2.6-2-4.4-4.4-5.3c-2.5-0.9-4.8-0.6-6.9,1.1
		c-1.9,1.5-2.6,3.6-2.7,6c0,6.9-0.1,13.8-0.1,20.7c0,0.3,0,0.5,0,0.9c1.7-0.9,3.4-1.7,4.9-2.6c1.3-0.8,2.4-0.8,3.8-0.1
		C72,93.7,73.8,94.5,75.7,95.4z"/>
	<path class="st0" d="M49.8,45.6c7.1,0,14.1,0,21.2,0c0.2,0,0.3,0,0.5,0c1.3,0,2,0.6,1.9,1.5c0,0.9-0.7,1.4-1.9,1.4
		c-2.9,0-5.8,0-8.7,0c-11.6,0-23.1,0-34.7,0c-1.1,0-1.9-0.6-1.9-1.5c0-0.9,0.6-1.4,1.9-1.4C35.3,45.6,42.6,45.6,49.8,45.6z"/>
	<path class="st0" d="M49.8,11.5c-7.1,0-14.3,0-21.4,0c-0.3,0-0.6,0-0.8,0c-0.7-0.1-1.2-0.6-1.3-1.3c0-0.8,0.4-1.3,1.1-1.4
		c0.4-0.1,0.9-0.1,1.4-0.1c14.2,0,28.4,0,42.6,0c0.5,0,1.2,0.2,1.6,0.5c0.3,0.3,0.4,1,0.2,1.4c-0.2,0.4-0.8,0.8-1.3,0.9
		c-0.6,0.2-1.3,0-1.9,0C63.2,11.5,56.5,11.5,49.8,11.5C49.8,11.5,49.8,11.5,49.8,11.5z"/>
	<path class="st0" d="M49.7,23.8c-7.1,0-14.3,0-21.4,0c-0.4,0-0.9,0-1.2-0.2c-0.4-0.3-0.8-0.8-0.8-1.2c0-0.4,0.4-0.9,0.7-1.2
		c0.3-0.2,0.8-0.2,1.2-0.2c14.4,0,28.7,0,43.1,0c0.4,0,0.9,0,1.1,0.2c0.4,0.3,0.8,0.8,0.8,1.3c0,0.4-0.4,1-0.8,1.2
		c-0.6,0.2-1.4,0.2-2.1,0.2C63.5,23.8,56.6,23.8,49.7,23.8C49.7,23.8,49.7,23.8,49.7,23.8z"/>
	<path class="st0" d="M49.8,33.2c7.1,0,14.3,0,21.4,0c0.4,0,1,0,1.3,0.2c0.4,0.3,0.8,0.8,0.8,1.2c0,0.4-0.4,0.9-0.8,1.2
		c-0.3,0.2-0.8,0.2-1.1,0.2c-14.4,0-28.8,0-43.3,0c-0.5,0-1.2-0.2-1.6-0.6c-0.8-0.8-0.2-2.1,1-2.3c0.6-0.1,1.3,0,1.9,0
		C36.3,33.3,43,33.3,49.8,33.2C49.8,33.2,49.8,33.2,49.8,33.2z"/>
	<path class="st0" d="M49.7,54.6c-7.2,0-14.3,0-21.5,0c-0.4,0-0.9,0-1.2-0.2c-0.4-0.3-0.7-0.8-0.7-1.2c0-0.4,0.4-0.9,0.8-1.2
		c0.3-0.2,0.8-0.2,1.2-0.2c14.4,0,28.7,0,43.1,0c0.4,0,0.8,0,1.1,0.2c0.4,0.3,0.8,0.8,0.8,1.3c0,0.4-0.4,0.9-0.8,1.2
		c-0.3,0.2-0.8,0.2-1.2,0.2C64.1,54.6,56.9,54.6,49.7,54.6z"/>
	<path class="st0" d="M49.7,17.6c-6.9,0-13.9,0-20.8,0c-0.2,0-0.5,0-0.7,0c-1.3,0-2-0.5-2-1.4c0-0.9,0.7-1.4,2-1.4
		c14.4,0,28.8,0,43.2,0c0.3,0,0.6,0,0.8,0c0.7,0.2,1.1,0.7,1.1,1.4c0,0.7-0.4,1.2-1.1,1.4c-0.4,0.1-0.7,0.1-1.1,0.1
		C64,17.6,56.8,17.6,49.7,17.6z"/>
	<path class="st0" d="M49.7,42.3c-7.1,0-14.2,0-21.4,0c-0.3,0-0.7,0-1-0.1c-0.7-0.2-1.1-0.6-1.1-1.4c0-0.7,0.4-1.2,1.1-1.4
		c0.3-0.1,0.7-0.1,1-0.1c14.3,0,28.5,0,42.8,0c0,0,0.1,0,0.1,0c1.4,0,2.1,0.5,2.1,1.4c0,0.9-0.7,1.4-2.1,1.4
		C64.1,42.3,56.9,42.3,49.7,42.3z"/>
	<path class="st0" d="M49.8,27.1c6.9,0,13.9,0,20.8,0c0.2,0,0.4,0,0.6,0c1.4,0,2.1,0.5,2.1,1.4c0,0.9-0.7,1.4-2.1,1.4
		c-14.3,0-28.7,0-43,0c-0.3,0-0.7,0-1-0.1c-0.7-0.2-1-0.7-1-1.3c0-0.7,0.3-1.2,1-1.3c0.4-0.1,0.7-0.1,1.1-0.1
		C35.5,27.1,42.7,27.1,49.8,27.1z"/>
	<path class="st0" d="M64.8,57.9c2.1,0,4.2,0,6.3,0c1.1,0,1.8,0.5,1.8,1.4c0,0.9-0.6,1.5-1.8,1.5c-4.3,0-8.6,0-12.9,0
		c-1.1,0-1.7-0.6-1.7-1.4c0-0.9,0.6-1.4,1.8-1.5C60.5,57.9,62.7,57.9,64.8,57.9z"/>
</g>
</svg>
