<?xml version="1.0" encoding="utf-8"?>
<!-- Generator: Adobe Illustrator 24.3.0, SVG Export Plug-In . SVG Version: 6.00 Build 0)  -->
<svg version="1.1" id="Capa_1" xmlns="http://www.w3.org/2000/svg" xmlns:xlink="http://www.w3.org/1999/xlink" x="0px" y="0px"
	 viewBox="0 0 100 100" style="enable-background:new 0 0 100 100;" xml:space="preserve">
<style type="text/css">
	.st0{fill:#FFFFFF;}
</style>
<g>
	<path class="st0" d="M17.1,59.6c0,2.5,0,4.9,0,7.3c0,0.2,0,0.4,0,0.6c7.5,1.4,10.3,10.9,3.7,16c1.7,0.1,3.3,0.6,4.7,1.5
		c3.2,2.1,5,5.1,5,9c0,1.1,0,2.2,0,3.3c0,1.4-0.4,1.8-1.8,1.8c-8.7,0-17.4,0-26.1,0c-1.2,0-1.8-0.5-1.7-1.7c0-1.8-0.1-3.7,0.2-5.5
		c0.7-4.4,4.7-8.1,9.1-8.5c0.2,0,0.3,0,0.6-0.1c-0.3-0.2-0.5-0.4-0.7-0.6c-2.6-2.2-3.5-5-2.9-8.2c0.6-3.4,2.7-5.7,6.1-6.7
		c0.6-0.2,0.7-0.4,0.7-1c0-2.7,0-5.4,0-8.1c0-2,0.3-2.3,2.3-2.3c18.2,0,36.4,0,54.7,0c0.4,0,0.8,0,1.3,0c0-9.8,0-19.6,0-29.5
		c-0.4,0-0.7,0-1,0c-4.1,0-8.2,0-12.4,0c-1.5,0-2.1-0.5-2.2-1.5c0-1,0.7-1.5,2.2-1.5c4.6,0,9.3,0,13.9,0c2.2,0,2.5,0.3,2.5,2.5
		c0,9.5,0,19,0,28.6c0,0.4,0,0.7,0,1.2c0.3,0,0.6,0.1,0.9,0.1c2.5,0,5,0,7.5,0c1.7,0,2.1,0.4,2.1,2.1c0,2.8,0,5.5,0,8.3
		c0,0.6,0.2,0.8,0.8,1c3.3,1,5.6,3.2,6.3,6.6c0.7,3.5-0.3,6.5-3.2,8.8c-0.1,0.1-0.3,0.1-0.3,0.3c2.3,0.3,4.2,1.1,5.9,2.5
		c2.3,1.9,3.5,4.3,3.7,7.3c0.1,1.4,0,2.8,0,4.3c0,1.1-0.5,1.6-1.6,1.6c-8.8,0-17.5,0-26.3,0c-1,0-1.5-0.4-1.6-1.3
		c-0.1-2.5-0.4-5,0.5-7.3c1.5-4.1,4.6-6.5,8.9-7.1c0.1,0,0.1,0,0.2-0.1c-6.3-4.6-4-14.2,3.7-15.8c0-2.7,0-5.3,0-8.1
		c-10.4,0-20.9,0-31.4,0c0,1.1,0,2.3,0,3.4c0,1.3,0,2.6,0,3.8c0,0.6,0.2,0.9,0.8,1.1c5.4,1.5,8.1,7.5,5.6,12.4
		c-0.6,1.2-1.7,2.3-2.5,3.4c0.4,0.1,1.1,0.1,1.7,0.3c4.4,1.1,7.6,5.2,7.7,9.7c0,1.2,0,2.4,0,3.6c0,1.6-0.4,2-2,2
		c-8.2,0-16.4,0-24.6,0c-0.5,0-1.1,0-1.6,0c-0.7,0-1.2-0.4-1.3-1.1c-0.3-4.3-0.3-8.4,3.3-11.7c1.6-1.5,3.5-2.4,6.3-2.8
		c-0.7-0.9-1.6-1.7-2.3-2.7c-3.1-4.9-0.3-11.6,5.4-12.9c0.3-0.1,0.6-0.4,0.6-0.6c0-2.6,0-5.1,0-7.7C38.1,59.6,27.7,59.6,17.1,59.6z
		 M27.5,96.2c0-0.8,0-1.6,0-2.3c-0.1-4.2-3.3-7.3-7.5-7.3c-2.7,0-5.5,0-8.2,0C7,86.4,3,90.1,3.9,96.2C11.7,96.2,19.6,96.2,27.5,96.2
		z M96.1,96.2c0-1.1,0.1-2.1,0-3.1c-0.4-3.6-3.4-6.4-7-6.5c-3.2-0.1-6.3-0.2-9.5,0c-4.7,0.2-8,4.3-7,9.6
		C80.5,96.2,88.3,96.2,96.1,96.2z M61.8,96.2c0-0.9,0-1.7,0-2.5c-0.1-4.2-3.3-7.2-7.4-7.2c-2.7,0-5.3,0.1-8,0
		c-4.8-0.1-8.9,3.5-8,9.7C46.1,96.2,53.9,96.2,61.8,96.2z M55.8,76.2c0-3.1-2.6-5.7-5.8-5.6c-3.2,0-5.7,2.5-5.8,5.6
		c0,3.1,2.6,5.7,5.8,5.8C53.2,81.9,55.8,79.4,55.8,76.2z M15.7,70.6c-3.2,0-5.8,2.5-5.8,5.6c0,3,2.7,5.7,5.8,5.7
		c3.2,0,5.8-2.5,5.8-5.6C21.6,73.2,18.9,70.6,15.7,70.6z M78.7,76.2c0,3.1,2.6,5.6,5.7,5.7c3.2,0.1,5.8-2.5,5.9-5.6
		c0.1-3.1-2.6-5.7-5.8-5.7C81.3,70.6,78.7,73.1,78.7,76.2z"/>
	<path class="st0" d="M43.4,48.5c-0.6-0.3-1.1-0.5-1.6-0.7c-1-0.7-1.9-1.4-2.8-2.1c-0.4-0.3-0.8-0.3-1.3-0.1
		c-1.6,0.7-3.2,1.2-4.7,1.9c-0.3,0.1-0.6,0.5-0.7,0.8c-0.2,1.1-0.3,2.1-0.4,3.2c-0.2,1.6-0.9,2.3-2.5,2.3c-1.4,0-2.8,0-4.2,0
		c-1.4,0-2.1-0.6-2.3-2c-0.2-1.2-0.3-2.4-0.5-3.6c-0.1-0.3-0.4-0.6-0.7-0.7c-1.5-0.6-3.1-1.2-4.6-1.8c-0.6-0.3-1-0.3-1.5,0.1
		c-0.8,0.7-1.8,1.3-2.6,2c-1.1,0.8-2,0.8-3-0.1c-1-1-2-2-3-3c-0.9-0.9-1-1.7-0.2-2.8c0.7-1,1.4-2,2.2-2.9c0.4-0.5,0.3-0.9,0.1-1.4
		c-0.6-1.4-1.2-2.9-1.8-4.4c-0.2-0.5-0.4-0.8-0.9-0.8C5.2,32.2,4.1,32,3,31.9c-1.3-0.2-2.1-1-2.1-2.3c0-1.4,0-2.9,0-4.3
		c0-1.3,0.7-2,2-2.2c1.2-0.2,2.4-0.3,3.5-0.5c0.5-0.1,0.7-0.2,0.9-0.7c0.5-1.5,1.2-3,1.9-4.5C9.4,16.8,9.3,16.4,9,16
		c-0.7-0.8-1.3-1.7-1.9-2.6c-0.9-1.2-0.8-2.2,0.2-3.3c1-1,2-2,3-3c0.9-0.9,2-0.9,3-0.2c1,0.7,2,1.5,3.1,2.2c0.3,0.2,0.8,0.2,1.1,0.1
		c1.6-0.6,3.2-1.3,4.8-1.9c0.3-0.1,0.6-0.5,0.6-0.7C23,5.2,23.2,4,23.4,2.7c0.2-1.1,0.9-1.8,2-1.8c1.6,0,3.2,0,4.8,0
		c1.1,0,1.7,0.7,1.8,1.7c0.2,1.3,0.4,2.5,0.5,3.8c0.1,0.5,0.3,0.7,0.7,0.9c1.6,0.6,3.1,1.3,4.7,1.9c0.3,0.1,0.8,0.1,1.1-0.1
		c1-0.7,1.9-1.4,2.9-2.1C43.1,6.1,44,6.2,45,7.2c1.3,1.3,2.5,2.6,3.8,3.8c0.5,0.5,0.5,0.8,0.1,1.3c-1,1.3-2,2.6-3,3.8
		c-0.3,0.4-0.3,0.7-0.1,1.1c0.7,1.6,1.3,3.1,2,4.7c0.1,0.3,0.5,0.6,0.8,0.6c1.2,0.2,2.5,0.4,3.7,0.5c1.1,0.2,1.9,0.9,1.9,2.1
		c0,1.6,0,3.1,0,4.7c0,1.1-0.9,1.9-2.1,2.1c-1.1,0.1-2.2,0.3-3.3,0.4c-0.5,0.1-0.9,0.2-1.1,0.8c-0.5,1.5-1.2,3-1.8,4.5
		c-0.2,0.5-0.3,0.9,0.1,1.3c0.8,1,1.5,1.9,2.2,2.9c0.8,1.1,0.7,2.1-0.3,3c-0.9,0.9-1.9,1.8-2.9,2.7C44.5,47.9,43.9,48.2,43.4,48.5z
		 M11.9,9.5c-0.6,0.7-1,1.3-1.6,1.8c-0.4,0.4-0.4,0.7-0.1,1.2c0.7,0.8,1.3,1.8,1.9,2.6c0.8,0.9,0.8,1.9,0.2,2.8
		c-1.1,1.8-1.9,3.7-2.4,5.8c-0.2,0.8-0.7,1.3-1.5,1.5c-0.8,0.2-1.6,0.3-2.3,0.4c-2.4,0.4-2.3,0.4-2.3,2.8c0,0.4,0.1,0.7,0.6,0.7
		c1.1,0.1,2.1,0.2,3.2,0.3c1.2,0.1,2,0.7,2.2,1.6c0.6,2.5,1.6,4.7,3,6.8c0.1,0.2,0.1,0.7,0,0.9c-0.5,0.8-1.1,1.7-1.7,2.4
		c-1.5,2-1.5,2,0.3,3.6c0,0,0,0.1,0.1,0.1c0.3,0,0.7,0.2,0.9,0c1-0.7,1.9-1.4,2.8-2.2c0.8-0.7,1.6-0.7,2.4-0.3c2,1.1,4,2.1,6.3,2.6
		c1,0.2,1.5,1,1.6,2c0.2,1,0.3,2,0.4,3c0.1,0.8,0.3,1.2,1.1,1c0.5-0.1,1,0,1.5,0c0.4,0,0.7-0.1,0.7-0.6c0.1-1.2,0.3-2.4,0.5-3.6
		c0.2-1,0.7-1.7,1.7-1.9c2.1-0.5,4.1-1.3,6-2.4c0.9-0.5,1.7-0.4,2.5,0.1c0.6,0.4,1.1,0.8,1.6,1.2c1.9,1.4,1.9,1.4,3.5-0.3
		c0.4-0.4,0.4-0.7,0.1-1.2c-0.7-0.9-1.4-1.8-2.1-2.7c-0.7-0.9-0.8-1.8-0.1-2.7c1.1-1.7,1.9-3.6,2.4-5.6c0.3-1.1,1-1.6,2-1.8
		c0.9-0.1,1.8-0.2,2.7-0.4c1.4-0.2,1.4-0.2,1.4-1.6c0-0.3,0-0.7,0-1c0-0.6-0.2-0.8-0.7-0.8c-1.1-0.1-2.1-0.3-3.2-0.4
		c-1.2-0.1-1.8-0.7-2.3-1.9c-0.7-1.9-1.5-3.8-2.4-5.6c-0.5-1-0.5-1.9,0.2-2.7c0.4-0.4,0.7-0.9,1-1.3c1.6-2,1.6-2-0.3-3.7
		c-0.3-0.3-0.6-0.3-1,0c-0.8,0.7-1.7,1.3-2.5,1.9c-1.3,1-1.7,1.1-3.2,0.2c-1.8-1-3.7-1.8-5.7-2.3c-1-0.2-1.4-0.8-1.6-1.8
		c-0.1-0.7-0.2-1.3-0.3-2c-0.3-2.4-0.3-2.4-2.7-2.3c-0.6,0-0.8,0.2-0.8,0.8c-0.1,1-0.2,2-0.3,3c-0.1,1.3-0.7,2-2,2.3
		c-2.2,0.4-4.2,1.3-6,2.5c-0.8,0.5-1.5,0.5-2.3-0.1C14.4,11.4,13.2,10.6,11.9,9.5z"/>
	<path class="st0" d="M27.6,40.1c-7.1,0-12.8-5.7-12.7-12.8c0-6.9,5.9-12.6,12.9-12.5c7.1,0.1,12.8,5.8,12.7,12.8
		C40.4,34.5,34.6,40.2,27.6,40.1z M27.6,17.7c-5.3,0-9.8,4.4-9.8,9.6c0,5.4,4.4,9.8,9.9,9.8c5.3,0,9.8-4.5,9.8-9.7
		C37.4,22,33,17.7,27.6,17.7z"/>
</g>
</svg>
