<?xml version="1.0" encoding="utf-8"?>
<!-- Generator: Adobe Illustrator 24.3.0, SVG Export Plug-In . SVG Version: 6.00 Build 0)  -->
<svg version="1.1" id="Layer_1" xmlns="http://www.w3.org/2000/svg" xmlns:xlink="http://www.w3.org/1999/xlink" x="0px" y="0px"
	 viewBox="0 0 319.3 243.3" style="enable-background:new 0 0 319.3 243.3;" xml:space="preserve">
<style type="text/css">
	.st0{fill:#FFFFFF;}
</style>
<g>
	<path class="st0" d="M164.5,80.6V9.5H11.3v153.2h143.5v71.1H308V80.6H164.5z M21.1,153V19.3h133.7v61.3V153H21.1z M298.3,224.1
		H164.5v-61.3V90.3h133.7V224.1z"/>
	<polygon class="st0" points="56.1,121.5 108.6,121.5 110.7,106.3 74.6,106.3 76.7,91.2 109,91.2 111.1,76 78.8,76 80.8,62.2 
		115,62.2 117.1,47 66.5,47 	"/>
	<path class="st0" d="M199.7,189.9c2.2,2,4.9,3.6,8,4.7c6.1,2.2,13.8,2.3,20,0c0.3-0.1,0.5-0.3,0.8-0.5c0.4-0.3,0.8-0.5,1.2-0.7
		l4.5-2.1l-6.2,12.1h14l28.3-57.5v-11.4h-35.7l-6.9,10.7h29.9l-14.3,28.1l-0.9-4.9c-0.3-1.4-0.6-2.7-1-3.8c-1-2.7-2.4-5-4.2-6.9
		c-1.8-1.9-4-3.5-6.6-4.6c-2.6-1.1-5.5-1.7-8.6-1.7c-0.8,0-1.5,0.1-2.3,0.2c-0.8,0.1-1.6,0.3-2.3,0.5l-4.3,1.1l18.8-28.6l-7.4-11.5
		l-23.6,37.1c-1.1,1.8-2.2,3.6-3.3,5.3c-1,1.7-1.9,3.4-2.6,5.2c-0.7,1.8-1.4,3.8-1.8,5.8c-0.4,2-0.7,4.3-0.7,6.7
		c0,3.5,0.7,6.7,1.9,9.5C195.7,185.4,197.5,187.8,199.7,189.9z M208,163.2c2.5-2.5,5.7-3.7,9.6-3.7c3.9,0,7.2,1.3,9.6,3.7
		c2.5,2.5,3.7,5.6,3.7,9.3s-1.3,6.9-3.7,9.3c-2.5,2.5-5.7,3.7-9.6,3.7c-3.9,0-7.2-1.3-9.6-3.7c-2.5-2.5-3.7-5.6-3.7-9.3
		S205.6,165.7,208,163.2z"/>
</g>
</svg>
