<?xml version="1.0" encoding="utf-8"?>
<!-- Generator: Adobe Illustrator 24.3.0, SVG Export Plug-In . SVG Version: 6.00 Build 0)  -->
<svg version="1.1" id="Capa_1" xmlns="http://www.w3.org/2000/svg" xmlns:xlink="http://www.w3.org/1999/xlink" x="0px" y="0px"
	 viewBox="0 0 356.7 99.5" style="enable-background:new 0 0 356.7 99.5;" xml:space="preserve">
<style type="text/css">
	.st0{fill:#FFFFFF;}
</style>
<g>
	<path class="st0" d="M293.3,31.3V0H0v68.2h288.5v31.3h68.2V31.3H293.3z M288.5,63.4H4.8V4.8h283.6V63.4z M351.9,94.7h-58.6V36.1
		h58.6V94.7z"/>
	<polygon class="st0" points="42.4,45.8 26.4,45.8 27.3,39.1 41.6,39.1 42.5,32.4 28.3,32.4 29.2,26.3 44.3,26.3 45.2,19.6 
		22.8,19.6 18.2,52.5 41.4,52.5 	"/>
	<path class="st0" d="M78.4,51.4c2.3-0.7,4.5-1.8,6.3-3.1c1.9-1.4,3.5-3.1,4.8-5.1s2.1-4.4,2.5-7c0.4-3,0.2-5.6-0.5-7.7
		c-0.7-2.1-1.9-3.8-3.5-5.1c-1.6-1.3-3.5-2.3-5.8-2.9c-2.3-0.6-4.7-0.9-7.4-0.9H63.9l-4.6,32.9h11.9C73.6,52.5,76,52.1,78.4,51.4z
		 M70.3,26.3h4.3c1.5,0,2.9,0.2,4.3,0.6c1.3,0.4,2.4,1,3.4,1.7c0.9,0.8,1.6,1.8,2,3c0.4,1.2,0.5,2.6,0.3,4.2
		c-0.3,1.9-0.8,3.4-1.6,4.7c-0.8,1.3-1.7,2.3-2.9,3.1c-1.2,0.8-2.5,1.4-4,1.7c-1.5,0.3-3.1,0.5-4.7,0.5h-3.8L70.3,26.3z"/>
	<polygon class="st0" points="118.5,19.6 111.2,19.6 106.6,52.5 113.9,52.5 	"/>
	<polygon class="st0" points="141.9,39.7 155.6,39.7 156.5,33 142.8,33 143.8,26.3 158.6,26.3 159.5,19.6 137.4,19.6 132.8,52.5 
		140.1,52.5 	"/>
	<polygon class="st0" points="184,19.6 176.7,19.6 172.1,52.5 179.4,52.5 	"/>
	<path class="st0" d="M201.8,48.7c1.4,1.5,3.1,2.7,5.1,3.5c2.1,0.8,4.4,1.2,7,1.2c2.3,0,4.5-0.5,6.8-1.4c2.3-0.9,4.2-2.4,5.9-4.3
		l-5.4-4.5c-0.9,1.1-2,2-3.2,2.6c-1.2,0.6-2.6,0.9-4.1,0.9c-1.3,0-2.5-0.3-3.6-0.8s-2-1.3-2.7-2.2c-0.7-0.9-1.2-2.1-1.5-3.3
		c-0.3-1.3-0.3-2.7-0.1-4.3c0.2-1.5,0.7-2.9,1.3-4.2c0.7-1.3,1.5-2.4,2.5-3.4c1-0.9,2.1-1.7,3.3-2.2c1.2-0.5,2.5-0.8,3.9-0.8
		c1.4,0,2.5,0.2,3.5,0.7c1,0.5,1.8,1.1,2.4,2l6.2-4.6c-0.6-0.9-1.2-1.7-2.1-2.3c-0.8-0.6-1.7-1.1-2.6-1.5c-0.9-0.4-1.9-0.6-2.9-0.8
		c-1-0.2-1.9-0.3-2.9-0.3c-2.6,0-5,0.4-7.3,1.2c-2.3,0.8-4.3,2-6.1,3.5c-1.8,1.5-3.3,3.3-4.5,5.5c-1.2,2.1-2,4.5-2.3,7.2
		c-0.4,2.6-0.3,5,0.3,7.2C199.5,45.3,200.5,47.2,201.8,48.7z"/>
	<path class="st0" d="M250.3,45.5h12.8l1.9,7h8.2l-9.7-32.9h-6l-18.8,32.9h8L250.3,45.5z M258.9,29.2l2.6,10.2h-8L258.9,29.2z"/>
	<path class="st0" d="M308.6,79.8c1,0.9,2.2,1.6,3.5,2.1c2.7,1,6.1,1,8.9,0c0.1,0,0.2-0.1,0.4-0.2c0.2-0.1,0.3-0.2,0.5-0.3l2-0.9
		l-2.7,5.4h6.2l12.5-25.4v-5H324l-3.1,4.7h13.2l-6.3,12.4l-0.4-2.2c-0.1-0.6-0.3-1.2-0.5-1.7c-0.4-1.2-1.1-2.2-1.9-3.1
		c-0.8-0.9-1.8-1.5-2.9-2c-1.1-0.5-2.4-0.8-3.8-0.8c-0.3,0-0.7,0-1,0.1c-0.3,0.1-0.7,0.1-1,0.2l-1.9,0.5l8.3-12.6l-3.3-5.1
		l-10.4,16.4c-0.5,0.8-1,1.6-1.5,2.4c-0.4,0.7-0.8,1.5-1.2,2.3c-0.3,0.8-0.6,1.7-0.8,2.6c-0.2,0.9-0.3,1.9-0.3,3
		c0,1.5,0.3,3,0.9,4.2C306.8,77.9,307.6,78.9,308.6,79.8z M312.3,68c1.1-1.1,2.5-1.6,4.3-1.6c1.7,0,3.2,0.6,4.3,1.6
		c1.1,1.1,1.6,2.5,1.6,4.1c0,1.6-0.6,3-1.6,4.1c-1.1,1.1-2.5,1.6-4.3,1.6c-1.7,0-3.2-0.6-4.3-1.6c-1.1-1.1-1.6-2.5-1.6-4.1
		C310.6,70.5,311.2,69.1,312.3,68z"/>
</g>
</svg>
